<?xml version="1.0" encoding="UTF-8"?>
<svg version="1.1" xmlns="http://www.w3.org/2000/svg" width="1830" height="927">
<path d="M0 0 C0.94525543 -0.00100708 1.89051086 -0.00201416 2.8644104 -0.00305176 C19.61375631 0.00894798 35.95327383 0.96513291 52.5625 3.25 C54.05112549 3.44287598 54.05112549 3.44287598 55.56982422 3.63964844 C115.85253194 11.63125044 174.8877615 34.6573432 220.078125 75.98828125 C221.67540758 77.44241115 223.28892639 78.87900828 224.921875 80.29296875 C236.26598672 90.17272618 246.23038921 101.47991563 255.5625 113.25 C256.48042451 114.37739959 257.3997797 115.50363534 258.3203125 116.62890625 C272.55967632 134.10770177 285.21078039 152.78990915 298.06640625 171.29296875 C322.42384782 206.29914105 348.81060257 243.71493186 382.80078125 270.10546875 C384.92729862 271.7567531 386.98924257 273.4376722 389.04296875 275.17578125 C399.64588329 284.09612425 410.89102294 291.79738712 422.5625 299.25 C423.20977051 299.66701172 423.85704102 300.08402344 424.52392578 300.51367188 C498.25910217 347.69437249 587.37983479 363.91600057 672.88476562 345.71289062 C732.40594956 332.49657638 787.33636619 302.99877038 832.5625 262.25 C833.17448242 261.70118164 833.78646484 261.15236328 834.41699219 260.58691406 C848.18494778 248.18054482 861.15718223 234.87564279 872.5625 220.25 C873.63898137 218.89165634 874.71583586 217.53360833 875.79296875 216.17578125 C883.21065213 206.77854465 890.2724586 197.18762141 897.09912109 187.35449219 C899.5503294 183.82939783 902.02464851 180.32066497 904.5 176.8125 C904.99258301 176.11374756 905.48516602 175.41499512 905.99267578 174.69506836 C910.18627608 168.75742611 914.44008547 162.86437471 918.70898438 156.98071289 C921.85828344 152.63353532 924.96291059 148.25937011 928.03125 143.85473633 C938.39406208 129.0047026 949.5432809 114.79500721 961.5625 101.25 C962.01157715 100.74307617 962.4606543 100.23615234 962.92333984 99.71386719 C973.6392195 87.68049339 984.80022761 76.12406365 997.5625 66.25 C999.06876953 65.05310547 999.06876953 65.05310547 1000.60546875 63.83203125 C1046.66991953 27.44295941 1103.08526791 10.07641168 1160.5625 2.25 C1161.51592285 2.11722656 1162.4693457 1.98445312 1163.45166016 1.84765625 C1193.43461493 -2.11519205 1225.72075188 -1.34414116 1255.5625 3.25 C1256.70493164 3.42160645 1257.84736328 3.59321289 1259.02441406 3.77001953 C1292.50537144 8.92909297 1325.02248284 18.53459221 1355.5625 33.25 C1356.60059814 33.74234131 1356.60059814 33.74234131 1357.65966797 34.24462891 C1374.85255984 42.42006675 1391.14226158 52.09307114 1406.5625 63.25 C1407.25005371 63.74677246 1407.93760742 64.24354492 1408.64599609 64.75537109 C1416.11845919 70.18597028 1423.39894083 75.70346429 1430.15625 82.01953125 C1431.46151077 83.22944018 1432.77552058 84.43122498 1434.13110352 85.58447266 C1440.61887278 91.10806463 1446.6138816 97.11528657 1452.63452148 103.13671875 C1454.48727468 104.98728967 1456.34788706 106.82970076 1458.20898438 108.671875 C1465.12547393 115.55563258 1471.55133405 122.55050051 1477.5625 130.25 C1478.53848617 131.45464929 1479.51609623 132.65798673 1480.49609375 133.859375 C1494.306573 151.08031182 1505.76381459 169.94301367 1515.375 189.8125 C1515.71869629 190.50843262 1516.06239258 191.20436523 1516.41650391 191.92138672 C1518.09936467 195.51956742 1518.78016147 197.47334282 1517.5625 201.25 C1511.50701998 199.35098134 1505.75683012 197.09110498 1499.95166016 194.53198242 C1458.50229958 176.31689435 1413.60193889 166.98799089 1368.3125 167.0625 C1367.56994965 167.06343658 1366.82739929 167.06437317 1366.06234741 167.06533813 C1309.13662831 167.21972379 1253.87008024 180.98627518 1203.38916016 207.29980469 C1201.57121075 208.24546882 1199.74520128 209.17398855 1197.91796875 210.1015625 C1174.15963533 222.30564304 1152.61175599 238.1631387 1132.90234375 256.12890625 C1130.77445185 258.05786335 1128.61529141 259.94036353 1126.4375 261.8125 C1119.60839168 267.79310187 1113.64859178 274.20089929 1107.96875 281.28125 C1105.89499204 283.83978255 1103.7742616 286.34723664 1101.62353516 288.84106445 C1096.07175918 295.29379518 1090.92132981 301.98308593 1085.859375 308.82421875 C1083.50718615 311.99909789 1081.11704103 315.1413296 1078.703125 318.26953125 C1071.57568965 327.51198361 1064.66785151 336.82713275 1058.14477539 346.50708008 C1054.88720334 351.33748266 1051.54063073 356.07614365 1048.0625 360.75 C1043.93439912 366.29953408 1040.00186697 371.95989331 1036.125 377.6875 C1030.62039477 385.80654799 1024.85432573 393.68234401 1018.90429688 401.47900391 C1016.926955 404.08883614 1015.00074495 406.73605859 1013.0625 409.375 C1007.88113744 416.27724832 1002.27007032 422.78192731 996.5625 429.25 C995.32113281 430.66152344 995.32113281 430.66152344 994.0546875 432.1015625 C982.53805741 444.91787499 970.48492312 457.87043181 956.85546875 468.45703125 C954.53158555 470.27417331 952.36471176 472.19791151 950.1875 474.1875 C944.57528214 479.21573047 938.60215248 483.75402365 932.5625 488.25 C931.91700195 488.73065918 931.27150391 489.21131836 930.60644531 489.70654297 C907.96063887 506.48181781 884.39606466 521.58065521 859.67919922 535.08740234 C857.79025697 536.12490442 855.91152663 537.17828526 854.03515625 538.23828125 C824.95746687 554.32593757 793.1564466 564.88989062 761.99459839 576.12338257 C745.38796554 582.11256814 728.8078079 588.17157539 712.25640869 594.31161499 C709.70609597 595.25751988 707.15462929 596.20019399 704.60198975 597.13980103 C692.65682071 601.5425202 680.76216927 605.98691784 669.140625 611.1953125 C668.33579178 611.55588745 667.53095856 611.9164624 666.70173645 612.28796387 C660.98304325 614.91582726 656.11941024 617.86319054 651.5625 622.25 C650.28439453 623.41402344 650.28439453 623.41402344 648.98046875 624.6015625 C625.011414 647.33026057 613.72706642 677.79124437 606.11572266 709.21313477 C605.5625 711.25 605.5625 711.25 604.5625 713.25 C603.5725 712.92 602.5825 712.59 601.5625 712.25 C600.69042969 710.14306641 600.69042969 710.14306641 599.984375 707.3515625 C599.57964966 705.81072998 599.57964966 705.81072998 599.16674805 704.23876953 C598.88484619 703.12872559 598.60294434 702.01868164 598.3125 700.875 C590.20734791 670.67210195 576.44386203 634.62185928 548.55883789 616.97143555 C536.71679673 610.16802707 523.86470201 605.20667864 511.125 600.375 C510.31168213 600.06418488 509.49836426 599.75336975 508.66040039 599.43313599 C483.07440694 589.65766179 457.26566203 580.44098335 431.4150238 571.39118958 C361.29564242 546.84320407 295.68616981 511.17064239 240.890625 460.39453125 C238.88108614 458.54346274 236.83464149 456.76493807 234.75 455 C225.71910289 447.14461222 217.24672819 438.41927005 209.5625 429.25 C208.79292969 428.36957031 208.02335938 427.48914063 207.23046875 426.58203125 C194.12831556 411.51824236 182.65467421 395.15529701 171.30078125 378.75878906 C154.70705253 354.80975026 137.83349304 331.00322194 119.92871094 308.01074219 C118.36431676 305.99458585 116.81112207 303.97002007 115.2578125 301.9453125 C99.40028468 281.3235039 82.44389501 261.00517183 61.5625 245.25 C60.25790631 244.23071126 58.95463347 243.20973075 57.65234375 242.1875 C48.56630882 235.09522682 39.29251011 228.42879529 29.5625 222.25 C28.46679688 221.54875 27.37109375 220.8475 26.2421875 220.125 C-28.96366916 185.55147391 -94.22817306 166.95032697 -159.3125 167.0625 C-160.02604645 167.06343658 -160.7395929 167.06437317 -161.47476196 167.06533813 C-209.92935156 167.20176557 -256.60825992 177.44706895 -300.55712891 197.88378906 C-302.04092041 198.56393066 -302.04092041 198.56393066 -303.5546875 199.2578125 C-304.42722168 199.66660645 -305.29975586 200.07540039 -306.19873047 200.49658203 C-308.4375 201.25 -308.4375 201.25 -311.4375 200.25 C-311.08645399 193.14884073 -307.92562709 187.68844044 -304.625 181.5 C-304.04331055 180.39760986 -303.46162109 179.29521973 -302.86230469 178.15942383 C-295.16205989 163.75429615 -286.56585426 150.07287869 -276.4375 137.25 C-275.79554688 136.41597656 -275.15359375 135.58195313 -274.4921875 134.72265625 C-270.01362542 128.98393196 -265.2055671 123.62525177 -260.24609375 118.3046875 C-258.1421669 116.04208777 -256.11195706 113.72601069 -254.09375 111.38671875 C-250.39748066 107.14544469 -246.48846207 103.15288514 -242.5 99.1875 C-241.83548828 98.51912109 -241.17097656 97.85074219 -240.48632812 97.16210938 C-235.96845642 92.65300173 -231.28363658 88.40229391 -226.4375 84.25 C-225.41657267 83.36078499 -224.39573189 82.47147059 -223.375 81.58203125 C-161.23554175 28.28422464 -81.66695541 0.0606599 0 0 Z " fill="#FFFFFF" transform="translate(311.4375,210.75)"/>
<path d="M0 0 C3 1 3 1 4.09985352 2.97094727 C4.43944092 3.82744873 4.77902832 4.6839502 5.12890625 5.56640625 C5.51876709 6.51918457 5.90862793 7.47196289 6.31030273 8.45361328 C6.72352783 9.4795459 7.13675293 10.50547852 7.5625 11.5625 C14.1804211 27.32339352 22.48983223 40.39849781 34 53 C35.07314453 54.19689453 35.07314453 54.19689453 36.16796875 55.41796875 C58.47199436 79.06107282 93.41214881 94.17102959 125.77661133 95.40014648 C150.52142985 95.79373805 174.79255384 88.36742437 197 78 C262.77688904 47.29459739 332.72431815 27.36838525 405.4375 23.8125 C406.31811096 23.76934662 407.19872192 23.72619324 408.10601807 23.68173218 C430.86284366 22.59876985 453.27437574 23.19297451 475.99084473 24.85473633 C477.86037814 24.98990522 479.73046661 25.11733568 481.60058594 25.24414062 C543.91283822 29.6578504 607.42694266 49.01470454 663.625 75.8125 C699.30994618 92.81671504 737.29811374 101.54171334 775.6875 88.25 C793.32270342 81.79880326 808.55757855 73.06395815 823 61 C823.68707031 60.44828125 824.37414063 59.8965625 825.08203125 59.328125 C841.5988473 45.64555549 853.58064733 24.97713225 860.61328125 4.9140625 C862 2 862 2 864.16796875 0.5859375 C864.77253906 0.39257812 865.37710938 0.19921875 866 0 C871.56302588 14.3049237 872.48563576 29.43604869 872.33618164 44.6237793 C872.31241439 47.19676844 872.31567739 49.76872405 872.32226562 52.34179688 C872.31805646 57.23322194 872.18246949 62.11239659 872 67 C871.98372559 67.73264069 871.96745117 68.46528137 871.95068359 69.22012329 C871.63053704 80.24044366 871.63053704 80.24044366 868.03149414 84.12426758 C865.38691988 85.8476072 862.7838426 87.0895298 859.875 88.3125 C857.86001939 89.2810898 855.84700687 90.25378403 853.8359375 91.23046875 C852.84174805 91.69372559 851.84755859 92.15698242 850.82324219 92.63427734 C846.87706649 94.54321083 843.18837024 96.76333167 839.5 99.125 C838.86280029 99.52944336 838.22560059 99.93388672 837.5690918 100.35058594 C823.01993936 109.69356197 809.77531571 120.354886 797 132 C795.2918084 133.52099252 793.58347551 135.04182638 791.875 136.5625 C785.55006276 142.26385188 779.55889586 148.18128816 774.015625 154.6484375 C772.4997584 156.41694854 770.96528712 158.1695391 769.421875 159.9140625 C761.38848811 169.0461615 754.09342125 178.66325403 746.88037109 188.45068359 C745.06927398 190.90608169 743.24892248 193.35431805 741.42578125 195.80078125 C734.86520975 204.62566937 728.46848443 213.55027702 722.18823242 222.57666016 C717.21655387 229.71694819 712.13713593 236.77457673 707.02734375 243.81640625 C704.67992172 247.05272271 702.35797422 250.30591597 700.0480957 253.5690918 C681.57598618 279.63297919 660.3597477 305.37339658 635 325 C633.33174775 326.33134894 631.66464192 327.66413967 630 329 C625.76493944 327.52283602 622.33434271 325.29703332 618.6875 322.75 C592.13706267 304.7472154 563.33367089 290.3863464 533 280 C531.78473633 279.57581787 531.78473633 279.57581787 530.54492188 279.14306641 C452.29257763 252.04191049 367.6182086 260.46904807 293.5859375 296.1015625 C290.34185784 297.69239794 287.125881 299.33345124 283.92138672 301.00244141 C281.9240856 302.03941375 279.91758716 303.05701313 277.91015625 304.07421875 C263.64548627 311.38051313 250.2983103 320.08140803 237 329 C229.16100059 325.25154624 222.63632005 318.86121705 216.6484375 312.6484375 C214.98537988 310.98537988 213.24565409 309.5029804 211.4375 308 C182.92408599 283.35468479 162.00429557 249.45495508 140.52050781 218.89550781 C137.53522759 214.65078175 134.54406972 210.41031605 131.54296875 206.17675781 C130.50013924 204.70557618 129.45850316 203.23354799 128.41796875 201.76074219 C121.11621235 191.44323603 113.51742438 181.47444202 105.44433594 171.74853516 C103.39626483 169.26910898 101.39006309 166.75627954 99.375 164.25 C86.2143251 148.24377378 71.50441954 132.57479584 55 120 C53.7397896 119.00138131 52.48076919 118.00125989 51.22265625 117 C39.17569854 107.49425292 26.64872851 98.57542485 12.75390625 91.96875 C11.17923584 91.20703491 11.17923584 91.20703491 9.57275391 90.42993164 C7.52859218 89.45687755 5.4671322 88.51913086 3.38818359 87.62280273 C-3.40523578 84.3925582 -3.40523578 84.3925582 -5.05419922 80.53173828 C-5.60677395 77.66610688 -5.85326383 74.91326197 -6 72 C-6.199556 70.3942479 -6.40131207 68.7887674 -6.60546875 67.18359375 C-8.08944516 50.46500361 -7.63775113 33.52757622 -5.1875 16.9375 C-5.0222583 15.80900635 -4.8570166 14.6805127 -4.68676758 13.51782227 C-3.83095134 8.27539405 -2.95797666 4.49035534 0 0 Z " fill="#FFFFFF" transform="translate(482,138)"/>
<path d="M0 0 C3.7723681 3.64299085 7.11994257 7.45426671 10.375 11.5625 C10.88611328 12.20453369 11.39722656 12.84656738 11.92382812 13.50805664 C18.17879635 21.41759506 24.1900287 29.51130387 30.20996094 37.60009766 C31.85456062 39.80500967 33.50683631 42.00378862 35.1640625 44.19921875 C45.03282107 57.27544461 54.66732734 70.50921638 63.91088867 84.03564453 C68.68002726 91.01222284 73.54194843 97.92120822 78.44091797 104.80712891 C79.49136117 106.28459224 80.53982511 107.76346456 81.58642578 109.24365234 C89.32438437 120.17849191 97.39180362 130.73567573 106 141 C106.5357666 141.64018066 107.0715332 142.28036133 107.62353516 142.93994141 C112.69038599 148.97511693 117.75091726 154.96963198 123.4375 160.4375 C125.17065598 162.17065598 126.73206047 164.00188648 128.3125 165.875 C132.45916921 170.70331346 137.20421102 174.83142688 142 179 C140.81882834 182.54351497 140.03696107 182.91170317 136.96875 184.86328125 C135.67868042 185.68807983 135.67868042 185.68807983 134.36254883 186.52954102 C132.94558716 187.41210571 132.94558716 187.41210571 131.5 188.3125 C130.51604248 188.92988037 129.53208496 189.54726074 128.51831055 190.18334961 C72.46779622 225.00361164 9.72082215 251.6715564 -57 253 C-58.17675293 253.02723145 -59.35350586 253.05446289 -60.56591797 253.08251953 C-145.86985596 254.82296944 -227.71810619 226.94563314 -294 173 C-294.81911865 172.33967773 -294.81911865 172.33967773 -295.65478516 171.66601562 C-305.11024537 163.98047395 -313.74696629 155.46137508 -322.375 146.875 C-322.93312378 146.32214325 -323.49124756 145.7692865 -324.06628418 145.19967651 C-331.19050096 138.12747758 -337.80042331 130.9090188 -344 123 C-344.88138901 121.9048502 -345.76287622 120.80977941 -346.64453125 119.71484375 C-360.4122469 102.07728369 -375.82214008 81.39814844 -383 60 C-382.67 59.01 -382.34 58.02 -382 57 C-374.94125448 58.36971551 -368.55704391 60.56266622 -361.875 63.1875 C-272.73193929 97.24639161 -175.30777296 93.95834385 -88 56 C-57.82261704 42.27667109 -30.79168702 24.68168745 -5 4 C-4.04738281 3.23816406 -3.09476562 2.47632813 -2.11328125 1.69140625 C-1.41589844 1.13324219 -0.71851563 0.57507813 0 0 Z " fill="#FFFFFF" transform="translate(390,508)"/>
<path d="M0 0 C3.06808015 0.58804523 4.86635478 1.44816266 7.22265625 3.484375 C7.83326904 4.00064453 8.44388184 4.51691406 9.07299805 5.04882812 C9.72953369 5.61021484 10.38606934 6.17160156 11.0625 6.75 C19.96002778 14.15077613 29.31407154 20.67795545 39 27 C39.81033691 27.53093262 40.62067383 28.06186523 41.45556641 28.60888672 C99.44517303 66.30958176 167.75676935 86.8078459 237 86 C238.06484619 85.98936523 239.12969238 85.97873047 240.22680664 85.96777344 C285.6647716 85.31102419 329.61471951 76.11530741 371.72802734 59.14916992 C372.7536377 58.73900635 373.77924805 58.32884277 374.8359375 57.90625 C375.73876465 57.53822266 376.6415918 57.17019531 377.57177734 56.79101562 C380 56 380 56 384 56 C383.53601826 62.28484357 381.38963763 66.91748951 378.4375 72.4375 C377.95933838 73.33984375 377.48117676 74.2421875 376.98852539 75.171875 C358.51843761 109.17567583 332.34463087 140.75671284 303 166 C302.36932617 166.54269531 301.73865234 167.08539062 301.08886719 167.64453125 C228.0777893 229.95538384 134.19478606 257.93031935 39 251.3125 C-22.36173888 246.35982753 -92.089134 217.56183698 -141 180 C-141 179.34 -141 178.68 -141 178 C-139.7421875 176.765625 -139.7421875 176.765625 -137.875 175.25 C-129.29939343 167.95844147 -121.13436053 159.8106515 -113.87109375 151.20703125 C-112.34574967 149.40782581 -110.7954237 147.64402702 -109.22265625 145.88671875 C-95.44335882 130.39945621 -83.52629844 113.53222924 -71.73828125 96.50878906 C-62.30758863 82.89786247 -52.76140595 69.37588882 -43 56 C-42.14921875 54.83404297 -42.14921875 54.83404297 -41.28125 53.64453125 C-31.08282134 39.68998489 -20.66384065 25.9146914 -10 12.3125 C-9.56727783 11.76037842 -9.13455566 11.20825684 -8.6887207 10.6394043 C-5.85332037 7.03941406 -2.94621432 3.5091517 0 0 Z " fill="#FFFFFF" transform="translate(1438,509)"/>
<path d="M0 0 C36.47096264 3.91609562 69.10465196 19.6923096 95.63085938 44.78466797 C96.51386719 45.60322266 97.396875 46.42177734 98.30664062 47.26513672 C124.89657574 72.72678605 142.58072499 112.50575169 143.87304688 149.27294922 C143.96218685 154.13385039 144.00133286 158.93483332 143.63085938 163.78466797 C141.22056108 166.19496626 139.88090721 166.08981374 136.58007812 166.16479492 C112.91416634 166.10800971 89.85146003 160.05407511 68.63085938 149.78466797 C67.9940625 149.47658203 67.35726562 149.16849609 66.70117188 148.85107422 C52.6217473 141.92629601 40.36451464 133.1096059 29.10302734 122.20556641 C27.61701587 120.77130658 26.11125854 119.3600902 24.60351562 117.94873047 C-5.95055806 88.90665143 -18.9288817 47.93487849 -21.63085938 6.80029297 C-21.36914062 3.78466797 -21.36914062 3.78466797 -20.30273438 1.37451172 C-15.4591255 -2.60801114 -6.0120066 -0.54643341 0 0 Z " fill="#FFFFFF" transform="translate(484.369140625,0.21533203125)"/>
<path d="M0 0 C1.03302246 -0.0141394 1.03302246 -0.0141394 2.08691406 -0.02856445 C6.94143804 0.00393804 6.94143804 0.00393804 9.1875 2.25 C12.87010622 38.88475799 -3.63732857 79.69901289 -26.42529297 107.58398438 C-29.76695049 111.59726683 -33.20399219 115.47535463 -36.8125 119.25 C-37.48152344 119.9821875 -38.15054687 120.714375 -38.83984375 121.46875 C-63.57892983 147.63597699 -103.50618483 164.6933846 -139.28857422 166.36572266 C-144.1358027 166.48269521 -148.96736833 166.41750135 -153.8125 166.25 C-161.56705993 151.71020014 -152.13139581 124.66470274 -147.73535156 110.08886719 C-134.44411604 69.20249507 -105.23934233 35.9005404 -67.08007812 16.34521484 C-46.31181751 6.31437751 -23.08562718 0.24079894 0 0 Z " fill="#FFFFFF" transform="translate(1362.8125,-0.25)"/>
<path d="M0 0 C1.05445313 0.56460937 2.10890625 1.12921875 3.1953125 1.7109375 C15.70286898 8.66683706 26.89834014 17.89834014 37 28 C37.43359375 30.8046875 37.43359375 30.8046875 37 34 C15.43262683 61.34360606 -25.93974317 76.37236912 -59.203125 80.4609375 C-100.37387681 84.75960662 -142.40971151 73.81087156 -175.2421875 48.26953125 C-179.63071384 44.65801028 -183.87438458 40.90887113 -188 37 C-188.73863281 36.30132812 -189.47726562 35.60265625 -190.23828125 34.8828125 C-192 33 -192 33 -192.6875 30.6875 C-190.93515434 23.83742152 -182.42196828 18.73489727 -177 14.625 C-175.88915039 13.78255737 -175.88915039 13.78255737 -174.75585938 12.9230957 C-157.64541433 0.14322978 -138.56937891 -9.24299791 -118 -15 C-117.26523437 -15.21172852 -116.53046875 -15.42345703 -115.7734375 -15.64160156 C-77.72738292 -26.09763834 -34.08948714 -18.77309012 0 0 Z " fill="#FFFFFF" transform="translate(992,452)"/>
<path d="M0 0 C2.73911508 -0.31498279 5.19830509 -0.4249654 7.9375 -0.375 C9.14152466 -0.35977295 9.14152466 -0.35977295 10.36987305 -0.34423828 C40.23418997 0.4043281 70.64861704 10.82305446 95 28 C95.58797363 28.41443359 96.17594727 28.82886719 96.78173828 29.25585938 C132.2666632 54.75045873 154.20108008 92.85797555 161.3125 135.625 C164.17362265 153.92489465 164.17362265 153.92489465 163 163 C160.25484318 165.74515682 158.73084243 165.33186977 154.875 165.375 C115.35120714 165.1883121 76.37991709 147.94402843 48 121 C47.49855469 120.53110352 46.99710938 120.06220703 46.48046875 119.57910156 C17.13049273 91.99655111 -0.23821464 52.16256159 -2.25 11.95703125 C-2.39844595 3.59766892 -2.39844595 3.59766892 0 0 Z " fill="#FFFFFF" transform="translate(1209,762)"/>
<path d="M0 0 C0.83950195 -0.00950684 1.67900391 -0.01901367 2.54394531 -0.02880859 C8.56713983 0.00463983 8.56713983 0.00463983 10.8125 2.25 C13.69528878 26.72018379 5.34153039 53.42600079 -5.1875 75.25 C-5.6822583 76.28640625 -5.6822583 76.28640625 -6.18701172 77.34375 C-19.0829094 104.0054824 -39.35607307 125.32610057 -64.1875 141.25 C-65.05930908 141.81098389 -65.05930908 141.81098389 -65.94873047 142.38330078 C-89.97452992 157.58444163 -122.57572407 167.52494243 -151.1875 165.25 C-153.1875 164.25 -153.1875 164.25 -154.1875 161.25 C-153.99339983 116.55843493 -136.17118363 75.24381326 -104.7421875 43.80419922 C-77.51776515 17.09842396 -38.13544423 0.36164144 0 0 Z " fill="#FFFFFF" transform="translate(617.1875,761.75)"/>
</svg>
